<svg xmlns="http://www.w3.org/2000/svg" viewBox="0 0 720 249" width="720" height="249" class="fig-svg" role="img">
<title>Token embedding: gather two table rows, add them, LayerNorm the sum</title><style>.fig-paper{fill:var(--fig-paper,#ffffff)}.fig-panel{fill:var(--fig-panel,#f8fafc)}.fig-none{fill:none}.s-ink{stroke:var(--fig-ink,#1f2937)}.t-ink{fill:var(--fig-ink,#1f2937)}.f-ink{fill:var(--fig-ink-soft,#f3f4f6)}.f-ink2{fill:var(--fig-ink-mid,#e5e7eb)}.k-ink{fill:var(--fig-ink,#1f2937)}.s-muted{stroke:var(--fig-muted,#6b7280)}.t-muted{fill:var(--fig-muted,#6b7280)}.f-muted{fill:var(--fig-muted-soft,#f9fafb)}.f-muted2{fill:var(--fig-muted-mid,#e5e7eb)}.k-muted{fill:var(--fig-muted,#6b7280)}.s-line{stroke:var(--fig-line,#9ca3af)}.t-line{fill:var(--fig-line,#9ca3af)}.f-line{fill:var(--fig-line-soft,#f3f4f6)}.f-line2{fill:var(--fig-line-mid,#d1d5db)}.k-line{fill:var(--fig-line,#9ca3af)}.s-a{stroke:var(--fig-a,#2563eb)}.t-a{fill:var(--fig-a,#2563eb)}.f-a{fill:var(--fig-a-soft,#dbeafe)}.f-a2{fill:var(--fig-a-mid,#93c5fd)}.k-a{fill:var(--fig-a,#2563eb)}.s-b{stroke:var(--fig-b,#c2410c)}.t-b{fill:var(--fig-b,#c2410c)}.f-b{fill:var(--fig-b-soft,#ffedd5)}.f-b2{fill:var(--fig-b-mid,#fdba74)}.k-b{fill:var(--fig-b,#c2410c)}.s-c{stroke:var(--fig-c,#15803d)}.t-c{fill:var(--fig-c,#15803d)}.f-c{fill:var(--fig-c-soft,#dcfce7)}.f-c2{fill:var(--fig-c-mid,#86efac)}.k-c{fill:var(--fig-c,#15803d)}.s-d{stroke:var(--fig-d,#7c3aed)}.t-d{fill:var(--fig-d,#7c3aed)}.f-d{fill:var(--fig-d-soft,#ede9fe)}.f-d2{fill:var(--fig-d-mid,#c4b5fd)}.k-d{fill:var(--fig-d,#7c3aed)}.s-hl{stroke:var(--fig-hl,#dc2626)}.t-hl{fill:var(--fig-hl,#dc2626)}.f-hl{fill:var(--fig-hl-soft,#fee2e2)}.f-hl2{fill:var(--fig-hl-mid,#fca5a5)}.k-hl{fill:var(--fig-hl,#dc2626)}.fig-txt{font-family:Inter,system-ui,-apple-system,'Segoe UI',sans-serif;font-size:15px}.fig-mono{font-family:'Ubuntu Mono',ui-monospace,Menlo,monospace;font-size:15px}.fig-small{font-size:13px}.fig-tiny{font-size:11px}.fig-big{font-size:17px}.fig-plate{fill:var(--fig-paper,#ffffff);fill-opacity:.92}.fig-bold{font-weight:600}.fig-it{font-style:italic}</style>
<defs><marker id="leetgpu-106-token-embedding-layer-ah-ink" viewBox="0 0 10 10" refX="9" refY="5" markerWidth="7" markerHeight="7" orient="auto-start-reverse"><path d="M0,0 L10,5 L0,10 z" class="k-ink"/></marker><marker id="leetgpu-106-token-embedding-layer-ah-muted" viewBox="0 0 10 10" refX="9" refY="5" markerWidth="7" markerHeight="7" orient="auto-start-reverse"><path d="M0,0 L10,5 L0,10 z" class="k-muted"/></marker><marker id="leetgpu-106-token-embedding-layer-ah-a" viewBox="0 0 10 10" refX="9" refY="5" markerWidth="7" markerHeight="7" orient="auto-start-reverse"><path d="M0,0 L10,5 L0,10 z" class="k-a"/></marker><marker id="leetgpu-106-token-embedding-layer-ah-b" viewBox="0 0 10 10" refX="9" refY="5" markerWidth="7" markerHeight="7" orient="auto-start-reverse"><path d="M0,0 L10,5 L0,10 z" class="k-b"/></marker><marker id="leetgpu-106-token-embedding-layer-ah-c" viewBox="0 0 10 10" refX="9" refY="5" markerWidth="7" markerHeight="7" orient="auto-start-reverse"><path d="M0,0 L10,5 L0,10 z" class="k-c"/></marker><marker id="leetgpu-106-token-embedding-layer-ah-d" viewBox="0 0 10 10" refX="9" refY="5" markerWidth="7" markerHeight="7" orient="auto-start-reverse"><path d="M0,0 L10,5 L0,10 z" class="k-d"/></marker><marker id="leetgpu-106-token-embedding-layer-ah-hl" viewBox="0 0 10 10" refX="9" refY="5" markerWidth="7" markerHeight="7" orient="auto-start-reverse"><path d="M0,0 L10,5 L0,10 z" class="k-hl"/></marker></defs>
<rect x="0" y="0" width="720" height="249" class="fig-paper"/>
<rect x="40" y="50" width="20" height="18" rx="0" class="fig-paper s-line" stroke-width="0.6"/>
<rect x="60" y="50" width="20" height="18" rx="0" class="fig-paper s-line" stroke-width="0.6"/>
<rect x="80" y="50" width="20" height="18" rx="0" class="fig-paper s-line" stroke-width="0.6"/>
<rect x="100" y="50" width="20" height="18" rx="0" class="fig-paper s-line" stroke-width="0.6"/>
<rect x="120" y="50" width="20" height="18" rx="0" class="fig-paper s-line" stroke-width="0.6"/>
<rect x="140" y="50" width="20" height="18" rx="0" class="fig-paper s-line" stroke-width="0.6"/>
<rect x="160" y="50" width="20" height="18" rx="0" class="fig-paper s-line" stroke-width="0.6"/>
<rect x="180" y="50" width="20" height="18" rx="0" class="fig-paper s-line" stroke-width="0.6"/>
<rect x="40" y="68" width="20" height="18" rx="0" class="fig-paper s-line" stroke-width="0.6"/>
<rect x="60" y="68" width="20" height="18" rx="0" class="fig-paper s-line" stroke-width="0.6"/>
<rect x="80" y="68" width="20" height="18" rx="0" class="fig-paper s-line" stroke-width="0.6"/>
<rect x="100" y="68" width="20" height="18" rx="0" class="fig-paper s-line" stroke-width="0.6"/>
<rect x="120" y="68" width="20" height="18" rx="0" class="fig-paper s-line" stroke-width="0.6"/>
<rect x="140" y="68" width="20" height="18" rx="0" class="fig-paper s-line" stroke-width="0.6"/>
<rect x="160" y="68" width="20" height="18" rx="0" class="fig-paper s-line" stroke-width="0.6"/>
<rect x="180" y="68" width="20" height="18" rx="0" class="fig-paper s-line" stroke-width="0.6"/>
<rect x="40" y="86" width="20" height="18" rx="0" class="fig-paper s-line" stroke-width="0.6"/>
<rect x="60" y="86" width="20" height="18" rx="0" class="fig-paper s-line" stroke-width="0.6"/>
<rect x="80" y="86" width="20" height="18" rx="0" class="fig-paper s-line" stroke-width="0.6"/>
<rect x="100" y="86" width="20" height="18" rx="0" class="fig-paper s-line" stroke-width="0.6"/>
<rect x="120" y="86" width="20" height="18" rx="0" class="fig-paper s-line" stroke-width="0.6"/>
<rect x="140" y="86" width="20" height="18" rx="0" class="fig-paper s-line" stroke-width="0.6"/>
<rect x="160" y="86" width="20" height="18" rx="0" class="fig-paper s-line" stroke-width="0.6"/>
<rect x="180" y="86" width="20" height="18" rx="0" class="fig-paper s-line" stroke-width="0.6"/>
<rect x="40" y="104" width="20" height="18" rx="0" class="f-a2 s-line" stroke-width="0.6"/>
<rect x="60" y="104" width="20" height="18" rx="0" class="f-a2 s-line" stroke-width="0.6"/>
<rect x="80" y="104" width="20" height="18" rx="0" class="f-a2 s-line" stroke-width="0.6"/>
<rect x="100" y="104" width="20" height="18" rx="0" class="f-a2 s-line" stroke-width="0.6"/>
<rect x="120" y="104" width="20" height="18" rx="0" class="f-a2 s-line" stroke-width="0.6"/>
<rect x="140" y="104" width="20" height="18" rx="0" class="f-a2 s-line" stroke-width="0.6"/>
<rect x="160" y="104" width="20" height="18" rx="0" class="f-a2 s-line" stroke-width="0.6"/>
<rect x="180" y="104" width="20" height="18" rx="0" class="f-a2 s-line" stroke-width="0.6"/>
<rect x="40" y="122" width="20" height="18" rx="0" class="fig-paper s-line" stroke-width="0.6"/>
<rect x="60" y="122" width="20" height="18" rx="0" class="fig-paper s-line" stroke-width="0.6"/>
<rect x="80" y="122" width="20" height="18" rx="0" class="fig-paper s-line" stroke-width="0.6"/>
<rect x="100" y="122" width="20" height="18" rx="0" class="fig-paper s-line" stroke-width="0.6"/>
<rect x="120" y="122" width="20" height="18" rx="0" class="fig-paper s-line" stroke-width="0.6"/>
<rect x="140" y="122" width="20" height="18" rx="0" class="fig-paper s-line" stroke-width="0.6"/>
<rect x="160" y="122" width="20" height="18" rx="0" class="fig-paper s-line" stroke-width="0.6"/>
<rect x="180" y="122" width="20" height="18" rx="0" class="fig-paper s-line" stroke-width="0.6"/>
<rect x="40" y="140" width="20" height="18" rx="0" class="fig-paper s-line" stroke-width="0.6"/>
<rect x="60" y="140" width="20" height="18" rx="0" class="fig-paper s-line" stroke-width="0.6"/>
<rect x="80" y="140" width="20" height="18" rx="0" class="fig-paper s-line" stroke-width="0.6"/>
<rect x="100" y="140" width="20" height="18" rx="0" class="fig-paper s-line" stroke-width="0.6"/>
<rect x="120" y="140" width="20" height="18" rx="0" class="fig-paper s-line" stroke-width="0.6"/>
<rect x="140" y="140" width="20" height="18" rx="0" class="fig-paper s-line" stroke-width="0.6"/>
<rect x="160" y="140" width="20" height="18" rx="0" class="fig-paper s-line" stroke-width="0.6"/>
<rect x="180" y="140" width="20" height="18" rx="0" class="fig-paper s-line" stroke-width="0.6"/>
<rect x="40" y="50" width="160" height="108" rx="0" class="fig-none s-a" stroke-width="1.3"/>
<text x="120" y="36" text-anchor="middle" dominant-baseline="central" class="fig-txt t-a fig-small fig-bold">token table E<tspan baseline-shift="sub" font-size="75%">T</tspan> (V × D)</text>
<text x="208" y="101" text-anchor="start" dominant-baseline="central" class="fig-txt t-a fig-tiny">τ = 3</text>
<rect x="270" y="50" width="20" height="18" rx="0" class="fig-paper s-line" stroke-width="0.6"/>
<rect x="290" y="50" width="20" height="18" rx="0" class="fig-paper s-line" stroke-width="0.6"/>
<rect x="310" y="50" width="20" height="18" rx="0" class="fig-paper s-line" stroke-width="0.6"/>
<rect x="330" y="50" width="20" height="18" rx="0" class="fig-paper s-line" stroke-width="0.6"/>
<rect x="350" y="50" width="20" height="18" rx="0" class="fig-paper s-line" stroke-width="0.6"/>
<rect x="370" y="50" width="20" height="18" rx="0" class="fig-paper s-line" stroke-width="0.6"/>
<rect x="390" y="50" width="20" height="18" rx="0" class="fig-paper s-line" stroke-width="0.6"/>
<rect x="410" y="50" width="20" height="18" rx="0" class="fig-paper s-line" stroke-width="0.6"/>
<rect x="270" y="68" width="20" height="18" rx="0" class="f-b2 s-line" stroke-width="0.6"/>
<rect x="290" y="68" width="20" height="18" rx="0" class="f-b2 s-line" stroke-width="0.6"/>
<rect x="310" y="68" width="20" height="18" rx="0" class="f-b2 s-line" stroke-width="0.6"/>
<rect x="330" y="68" width="20" height="18" rx="0" class="f-b2 s-line" stroke-width="0.6"/>
<rect x="350" y="68" width="20" height="18" rx="0" class="f-b2 s-line" stroke-width="0.6"/>
<rect x="370" y="68" width="20" height="18" rx="0" class="f-b2 s-line" stroke-width="0.6"/>
<rect x="390" y="68" width="20" height="18" rx="0" class="f-b2 s-line" stroke-width="0.6"/>
<rect x="410" y="68" width="20" height="18" rx="0" class="f-b2 s-line" stroke-width="0.6"/>
<rect x="270" y="86" width="20" height="18" rx="0" class="fig-paper s-line" stroke-width="0.6"/>
<rect x="290" y="86" width="20" height="18" rx="0" class="fig-paper s-line" stroke-width="0.6"/>
<rect x="310" y="86" width="20" height="18" rx="0" class="fig-paper s-line" stroke-width="0.6"/>
<rect x="330" y="86" width="20" height="18" rx="0" class="fig-paper s-line" stroke-width="0.6"/>
<rect x="350" y="86" width="20" height="18" rx="0" class="fig-paper s-line" stroke-width="0.6"/>
<rect x="370" y="86" width="20" height="18" rx="0" class="fig-paper s-line" stroke-width="0.6"/>
<rect x="390" y="86" width="20" height="18" rx="0" class="fig-paper s-line" stroke-width="0.6"/>
<rect x="410" y="86" width="20" height="18" rx="0" class="fig-paper s-line" stroke-width="0.6"/>
<rect x="270" y="104" width="20" height="18" rx="0" class="fig-paper s-line" stroke-width="0.6"/>
<rect x="290" y="104" width="20" height="18" rx="0" class="fig-paper s-line" stroke-width="0.6"/>
<rect x="310" y="104" width="20" height="18" rx="0" class="fig-paper s-line" stroke-width="0.6"/>
<rect x="330" y="104" width="20" height="18" rx="0" class="fig-paper s-line" stroke-width="0.6"/>
<rect x="350" y="104" width="20" height="18" rx="0" class="fig-paper s-line" stroke-width="0.6"/>
<rect x="370" y="104" width="20" height="18" rx="0" class="fig-paper s-line" stroke-width="0.6"/>
<rect x="390" y="104" width="20" height="18" rx="0" class="fig-paper s-line" stroke-width="0.6"/>
<rect x="410" y="104" width="20" height="18" rx="0" class="fig-paper s-line" stroke-width="0.6"/>
<rect x="270" y="122" width="20" height="18" rx="0" class="fig-paper s-line" stroke-width="0.6"/>
<rect x="290" y="122" width="20" height="18" rx="0" class="fig-paper s-line" stroke-width="0.6"/>
<rect x="310" y="122" width="20" height="18" rx="0" class="fig-paper s-line" stroke-width="0.6"/>
<rect x="330" y="122" width="20" height="18" rx="0" class="fig-paper s-line" stroke-width="0.6"/>
<rect x="350" y="122" width="20" height="18" rx="0" class="fig-paper s-line" stroke-width="0.6"/>
<rect x="370" y="122" width="20" height="18" rx="0" class="fig-paper s-line" stroke-width="0.6"/>
<rect x="390" y="122" width="20" height="18" rx="0" class="fig-paper s-line" stroke-width="0.6"/>
<rect x="410" y="122" width="20" height="18" rx="0" class="fig-paper s-line" stroke-width="0.6"/>
<rect x="270" y="140" width="20" height="18" rx="0" class="fig-paper s-line" stroke-width="0.6"/>
<rect x="290" y="140" width="20" height="18" rx="0" class="fig-paper s-line" stroke-width="0.6"/>
<rect x="310" y="140" width="20" height="18" rx="0" class="fig-paper s-line" stroke-width="0.6"/>
<rect x="330" y="140" width="20" height="18" rx="0" class="fig-paper s-line" stroke-width="0.6"/>
<rect x="350" y="140" width="20" height="18" rx="0" class="fig-paper s-line" stroke-width="0.6"/>
<rect x="370" y="140" width="20" height="18" rx="0" class="fig-paper s-line" stroke-width="0.6"/>
<rect x="390" y="140" width="20" height="18" rx="0" class="fig-paper s-line" stroke-width="0.6"/>
<rect x="410" y="140" width="20" height="18" rx="0" class="fig-paper s-line" stroke-width="0.6"/>
<rect x="270" y="50" width="160" height="108" rx="0" class="fig-none s-b" stroke-width="1.3"/>
<text x="350" y="36" text-anchor="middle" dominant-baseline="central" class="fig-txt t-b fig-small fig-bold">position table E<tspan baseline-shift="sub" font-size="75%">P</tspan> (P × D)</text>
<text x="438" y="77" text-anchor="start" dominant-baseline="central" class="fig-txt t-b fig-tiny">π = 1</text>
<rect x="520" y="70" width="170" height="34" rx="4" class="f-d s-d" stroke-width="1.2"/>
<text x="605" y="87" text-anchor="middle" dominant-baseline="central" class="fig-txt t-ink fig-small">s = E<tspan baseline-shift="sub" font-size="75%">T</tspan>[τ] + E<tspan baseline-shift="sub" font-size="75%">P</tspan>[π]</text>
<rect x="520" y="140" width="170" height="34" rx="4" class="f-c s-c" stroke-width="1.2"/>
<text x="605" y="157" text-anchor="middle" dominant-baseline="central" class="fig-txt t-ink fig-small">y = LayerNorm(s; γ, β)</text>
<line x1="605" y1="106" x2="605" y2="138" class="s-d" stroke-width="1.2" marker-end="url(#leetgpu-106-token-embedding-layer-ah-d)"/>
<path d="M202,113 L230,113 L230,176 L502,176 L502,94 L516,94" class="fig-none s-a" stroke-width="1.1" stroke-linejoin="round" stroke-linecap="round" marker-end="url(#leetgpu-106-token-embedding-layer-ah-a)"/>
<line x1="480" y1="77" x2="518" y2="80" class="s-b" stroke-width="1" marker-end="url(#leetgpu-106-token-embedding-layer-ah-b)"/>
<text x="40" y="210" text-anchor="start" dominant-baseline="central" class="fig-txt t-muted fig-small">One block (or warp) per token: two coalesced row gathers of D floats, the sum kept in</text>
<text x="40" y="227" text-anchor="start" dominant-baseline="central" class="fig-txt t-muted fig-small">registers, a mean/variance reduction over D, and one write of the normalised row.</text>
</svg>
