<svg xmlns="http://www.w3.org/2000/svg" viewBox="0 0 720 282" width="720" height="282" class="fig-svg" role="img">
<title>Cooperative groups: a thread block partitioned into tiles</title><style>.fig-paper{fill:var(--fig-paper,#ffffff)}.fig-panel{fill:var(--fig-panel,#f8fafc)}.fig-none{fill:none}.s-ink{stroke:var(--fig-ink,#1f2937)}.t-ink{fill:var(--fig-ink,#1f2937)}.f-ink{fill:var(--fig-ink-soft,#f3f4f6)}.f-ink2{fill:var(--fig-ink-mid,#e5e7eb)}.k-ink{fill:var(--fig-ink,#1f2937)}.s-muted{stroke:var(--fig-muted,#6b7280)}.t-muted{fill:var(--fig-muted,#6b7280)}.f-muted{fill:var(--fig-muted-soft,#f9fafb)}.f-muted2{fill:var(--fig-muted-mid,#e5e7eb)}.k-muted{fill:var(--fig-muted,#6b7280)}.s-line{stroke:var(--fig-line,#9ca3af)}.t-line{fill:var(--fig-line,#9ca3af)}.f-line{fill:var(--fig-line-soft,#f3f4f6)}.f-line2{fill:var(--fig-line-mid,#d1d5db)}.k-line{fill:var(--fig-line,#9ca3af)}.s-a{stroke:var(--fig-a,#2563eb)}.t-a{fill:var(--fig-a,#2563eb)}.f-a{fill:var(--fig-a-soft,#dbeafe)}.f-a2{fill:var(--fig-a-mid,#93c5fd)}.k-a{fill:var(--fig-a,#2563eb)}.s-b{stroke:var(--fig-b,#c2410c)}.t-b{fill:var(--fig-b,#c2410c)}.f-b{fill:var(--fig-b-soft,#ffedd5)}.f-b2{fill:var(--fig-b-mid,#fdba74)}.k-b{fill:var(--fig-b,#c2410c)}.s-c{stroke:var(--fig-c,#15803d)}.t-c{fill:var(--fig-c,#15803d)}.f-c{fill:var(--fig-c-soft,#dcfce7)}.f-c2{fill:var(--fig-c-mid,#86efac)}.k-c{fill:var(--fig-c,#15803d)}.s-d{stroke:var(--fig-d,#7c3aed)}.t-d{fill:var(--fig-d,#7c3aed)}.f-d{fill:var(--fig-d-soft,#ede9fe)}.f-d2{fill:var(--fig-d-mid,#c4b5fd)}.k-d{fill:var(--fig-d,#7c3aed)}.s-hl{stroke:var(--fig-hl,#dc2626)}.t-hl{fill:var(--fig-hl,#dc2626)}.f-hl{fill:var(--fig-hl-soft,#fee2e2)}.f-hl2{fill:var(--fig-hl-mid,#fca5a5)}.k-hl{fill:var(--fig-hl,#dc2626)}.fig-txt{font-family:Inter,system-ui,-apple-system,'Segoe UI',sans-serif;font-size:15px}.fig-mono{font-family:'Ubuntu Mono',ui-monospace,Menlo,monospace;font-size:15px}.fig-small{font-size:13px}.fig-tiny{font-size:11px}.fig-big{font-size:17px}.fig-plate{fill:var(--fig-paper,#ffffff);fill-opacity:.92}.fig-bold{font-weight:600}.fig-it{font-style:italic}</style>
<defs><marker id="ch10-cg-tiles-ah-ink" viewBox="0 0 10 10" refX="9" refY="5" markerWidth="7" markerHeight="7" orient="auto-start-reverse"><path d="M0,0 L10,5 L0,10 z" class="k-ink"/></marker><marker id="ch10-cg-tiles-ah-muted" viewBox="0 0 10 10" refX="9" refY="5" markerWidth="7" markerHeight="7" orient="auto-start-reverse"><path d="M0,0 L10,5 L0,10 z" class="k-muted"/></marker><marker id="ch10-cg-tiles-ah-a" viewBox="0 0 10 10" refX="9" refY="5" markerWidth="7" markerHeight="7" orient="auto-start-reverse"><path d="M0,0 L10,5 L0,10 z" class="k-a"/></marker><marker id="ch10-cg-tiles-ah-b" viewBox="0 0 10 10" refX="9" refY="5" markerWidth="7" markerHeight="7" orient="auto-start-reverse"><path d="M0,0 L10,5 L0,10 z" class="k-b"/></marker><marker id="ch10-cg-tiles-ah-c" viewBox="0 0 10 10" refX="9" refY="5" markerWidth="7" markerHeight="7" orient="auto-start-reverse"><path d="M0,0 L10,5 L0,10 z" class="k-c"/></marker><marker id="ch10-cg-tiles-ah-d" viewBox="0 0 10 10" refX="9" refY="5" markerWidth="7" markerHeight="7" orient="auto-start-reverse"><path d="M0,0 L10,5 L0,10 z" class="k-d"/></marker><marker id="ch10-cg-tiles-ah-hl" viewBox="0 0 10 10" refX="9" refY="5" markerWidth="7" markerHeight="7" orient="auto-start-reverse"><path d="M0,0 L10,5 L0,10 z" class="k-hl"/></marker></defs>
<rect x="0" y="0" width="720" height="282" class="fig-paper"/>
<rect x="40" y="50" width="640" height="44" rx="6" class="f-a s-a" stroke-width="1.2"/>
<text x="360" y="72" text-anchor="middle" dominant-baseline="central" class="fig-mono t-ink fig-small">cg::thread_block block = cg::this_thread_block();   // 256 threads</text>
<rect x="43" y="114" width="74" height="40" rx="4" class="f-c s-c" stroke-width="1.2"/>
<text x="80" y="134" text-anchor="middle" dominant-baseline="central" class="fig-txt t-ink fig-small">warp 0</text>
<rect x="123" y="114" width="74" height="40" rx="4" class="f-c s-c" stroke-width="1.2"/>
<text x="160" y="134" text-anchor="middle" dominant-baseline="central" class="fig-txt t-ink fig-small">warp 1</text>
<rect x="203" y="114" width="74" height="40" rx="4" class="f-c s-c" stroke-width="1.2"/>
<text x="240" y="134" text-anchor="middle" dominant-baseline="central" class="fig-txt t-ink fig-small">warp 2</text>
<rect x="283" y="114" width="74" height="40" rx="4" class="f-c s-c" stroke-width="1.2"/>
<text x="320" y="134" text-anchor="middle" dominant-baseline="central" class="fig-txt t-ink fig-small">warp 3</text>
<rect x="363" y="114" width="74" height="40" rx="4" class="f-c s-c" stroke-width="1.2"/>
<text x="400" y="134" text-anchor="middle" dominant-baseline="central" class="fig-txt t-ink fig-small">warp 4</text>
<rect x="443" y="114" width="74" height="40" rx="4" class="f-c s-c" stroke-width="1.2"/>
<text x="480" y="134" text-anchor="middle" dominant-baseline="central" class="fig-txt t-ink fig-small">warp 5</text>
<rect x="523" y="114" width="74" height="40" rx="4" class="f-c s-c" stroke-width="1.2"/>
<text x="560" y="134" text-anchor="middle" dominant-baseline="central" class="fig-txt t-ink fig-small">warp 6</text>
<rect x="603" y="114" width="74" height="40" rx="4" class="f-c s-c" stroke-width="1.2"/>
<text x="640" y="134" text-anchor="middle" dominant-baseline="central" class="fig-txt t-ink fig-small">warp 7</text>
<text x="360" y="174" text-anchor="middle" dominant-baseline="central" class="fig-mono t-ink fig-small">cg::tiled_partition&lt;32&gt;(block): 8 tiles, meta_group_rank() = 0 … 7</text>
<rect x="42" y="192" width="36" height="32" rx="4" class="f-d s-d" stroke-width="1.2"/>
<text x="60" y="208" text-anchor="middle" dominant-baseline="central" class="fig-txt t-ink fig-small">0</text>
<rect x="82" y="192" width="36" height="32" rx="4" class="f-d s-d" stroke-width="1.2"/>
<text x="100" y="208" text-anchor="middle" dominant-baseline="central" class="fig-txt t-ink fig-small">1</text>
<rect x="122" y="192" width="36" height="32" rx="4" class="f-d s-d" stroke-width="1.2"/>
<text x="140" y="208" text-anchor="middle" dominant-baseline="central" class="fig-txt t-ink fig-small">2</text>
<rect x="162" y="192" width="36" height="32" rx="4" class="f-d s-d" stroke-width="1.2"/>
<text x="180" y="208" text-anchor="middle" dominant-baseline="central" class="fig-txt t-ink fig-small">3</text>
<rect x="202" y="192" width="36" height="32" rx="4" class="f-d s-d" stroke-width="1.2"/>
<text x="220" y="208" text-anchor="middle" dominant-baseline="central" class="fig-txt t-ink fig-small">4</text>
<rect x="242" y="192" width="36" height="32" rx="4" class="f-d s-d" stroke-width="1.2"/>
<text x="260" y="208" text-anchor="middle" dominant-baseline="central" class="fig-txt t-ink fig-small">5</text>
<rect x="282" y="192" width="36" height="32" rx="4" class="f-d s-d" stroke-width="1.2"/>
<text x="300" y="208" text-anchor="middle" dominant-baseline="central" class="fig-txt t-ink fig-small">6</text>
<rect x="322" y="192" width="36" height="32" rx="4" class="f-d s-d" stroke-width="1.2"/>
<text x="340" y="208" text-anchor="middle" dominant-baseline="central" class="fig-txt t-ink fig-small">7</text>
<rect x="362" y="192" width="36" height="32" rx="4" class="f-d s-d" stroke-width="1.2"/>
<text x="380" y="208" text-anchor="middle" dominant-baseline="central" class="fig-txt t-ink fig-small">8</text>
<rect x="402" y="192" width="36" height="32" rx="4" class="f-d s-d" stroke-width="1.2"/>
<text x="420" y="208" text-anchor="middle" dominant-baseline="central" class="fig-txt t-ink fig-small">9</text>
<rect x="442" y="192" width="36" height="32" rx="4" class="f-d s-d" stroke-width="1.2"/>
<text x="460" y="208" text-anchor="middle" dominant-baseline="central" class="fig-txt t-ink fig-small">10</text>
<rect x="482" y="192" width="36" height="32" rx="4" class="f-d s-d" stroke-width="1.2"/>
<text x="500" y="208" text-anchor="middle" dominant-baseline="central" class="fig-txt t-ink fig-small">11</text>
<rect x="522" y="192" width="36" height="32" rx="4" class="f-d s-d" stroke-width="1.2"/>
<text x="540" y="208" text-anchor="middle" dominant-baseline="central" class="fig-txt t-ink fig-small">12</text>
<rect x="562" y="192" width="36" height="32" rx="4" class="f-d s-d" stroke-width="1.2"/>
<text x="580" y="208" text-anchor="middle" dominant-baseline="central" class="fig-txt t-ink fig-small">13</text>
<rect x="602" y="192" width="36" height="32" rx="4" class="f-d s-d" stroke-width="1.2"/>
<text x="620" y="208" text-anchor="middle" dominant-baseline="central" class="fig-txt t-ink fig-small">14</text>
<rect x="642" y="192" width="36" height="32" rx="4" class="f-d s-d" stroke-width="1.2"/>
<text x="660" y="208" text-anchor="middle" dominant-baseline="central" class="fig-txt t-ink fig-small">15</text>
<text x="360" y="242" text-anchor="middle" dominant-baseline="central" class="fig-mono t-ink fig-small">cg::tiled_partition&lt;16&gt;(block): 16 tiles of 16 threads;</text>
<text x="360" y="260" text-anchor="middle" dominant-baseline="central" class="fig-mono t-ink fig-small">tile.sync(), tile.shfl_*(), cg::reduce() act on 16 lanes</text>
</svg>
