<svg xmlns="http://www.w3.org/2000/svg" viewBox="0 0 720 330" width="720" height="330" class="fig-svg" role="img">
<title>Warp tiling in 04-warp-tiling.cu</title><style>.fig-paper{fill:var(--fig-paper,#ffffff)}.fig-panel{fill:var(--fig-panel,#f8fafc)}.fig-none{fill:none}.s-ink{stroke:var(--fig-ink,#1f2937)}.t-ink{fill:var(--fig-ink,#1f2937)}.f-ink{fill:var(--fig-ink-soft,#f3f4f6)}.f-ink2{fill:var(--fig-ink-mid,#e5e7eb)}.k-ink{fill:var(--fig-ink,#1f2937)}.s-muted{stroke:var(--fig-muted,#6b7280)}.t-muted{fill:var(--fig-muted,#6b7280)}.f-muted{fill:var(--fig-muted-soft,#f9fafb)}.f-muted2{fill:var(--fig-muted-mid,#e5e7eb)}.k-muted{fill:var(--fig-muted,#6b7280)}.s-line{stroke:var(--fig-line,#9ca3af)}.t-line{fill:var(--fig-line,#9ca3af)}.f-line{fill:var(--fig-line-soft,#f3f4f6)}.f-line2{fill:var(--fig-line-mid,#d1d5db)}.k-line{fill:var(--fig-line,#9ca3af)}.s-a{stroke:var(--fig-a,#2563eb)}.t-a{fill:var(--fig-a,#2563eb)}.f-a{fill:var(--fig-a-soft,#dbeafe)}.f-a2{fill:var(--fig-a-mid,#93c5fd)}.k-a{fill:var(--fig-a,#2563eb)}.s-b{stroke:var(--fig-b,#c2410c)}.t-b{fill:var(--fig-b,#c2410c)}.f-b{fill:var(--fig-b-soft,#ffedd5)}.f-b2{fill:var(--fig-b-mid,#fdba74)}.k-b{fill:var(--fig-b,#c2410c)}.s-c{stroke:var(--fig-c,#15803d)}.t-c{fill:var(--fig-c,#15803d)}.f-c{fill:var(--fig-c-soft,#dcfce7)}.f-c2{fill:var(--fig-c-mid,#86efac)}.k-c{fill:var(--fig-c,#15803d)}.s-d{stroke:var(--fig-d,#7c3aed)}.t-d{fill:var(--fig-d,#7c3aed)}.f-d{fill:var(--fig-d-soft,#ede9fe)}.f-d2{fill:var(--fig-d-mid,#c4b5fd)}.k-d{fill:var(--fig-d,#7c3aed)}.s-hl{stroke:var(--fig-hl,#dc2626)}.t-hl{fill:var(--fig-hl,#dc2626)}.f-hl{fill:var(--fig-hl-soft,#fee2e2)}.f-hl2{fill:var(--fig-hl-mid,#fca5a5)}.k-hl{fill:var(--fig-hl,#dc2626)}.fig-txt{font-family:Inter,system-ui,-apple-system,'Segoe UI',sans-serif;font-size:14px}.fig-mono{font-family:'Ubuntu Mono',ui-monospace,Menlo,monospace;font-size:14px}.fig-small{font-size:12px}.fig-tiny{font-size:9.5px}.fig-big{font-size:16px}.fig-bold{font-weight:600}.fig-it{font-style:italic}</style>
<defs><marker id="gemm-warp-tile-ah-ink" viewBox="0 0 10 10" refX="9" refY="5" markerWidth="7" markerHeight="7" orient="auto-start-reverse"><path d="M0,0 L10,5 L0,10 z" class="k-ink"/></marker><marker id="gemm-warp-tile-ah-muted" viewBox="0 0 10 10" refX="9" refY="5" markerWidth="7" markerHeight="7" orient="auto-start-reverse"><path d="M0,0 L10,5 L0,10 z" class="k-muted"/></marker><marker id="gemm-warp-tile-ah-a" viewBox="0 0 10 10" refX="9" refY="5" markerWidth="7" markerHeight="7" orient="auto-start-reverse"><path d="M0,0 L10,5 L0,10 z" class="k-a"/></marker><marker id="gemm-warp-tile-ah-b" viewBox="0 0 10 10" refX="9" refY="5" markerWidth="7" markerHeight="7" orient="auto-start-reverse"><path d="M0,0 L10,5 L0,10 z" class="k-b"/></marker><marker id="gemm-warp-tile-ah-c" viewBox="0 0 10 10" refX="9" refY="5" markerWidth="7" markerHeight="7" orient="auto-start-reverse"><path d="M0,0 L10,5 L0,10 z" class="k-c"/></marker><marker id="gemm-warp-tile-ah-d" viewBox="0 0 10 10" refX="9" refY="5" markerWidth="7" markerHeight="7" orient="auto-start-reverse"><path d="M0,0 L10,5 L0,10 z" class="k-d"/></marker><marker id="gemm-warp-tile-ah-hl" viewBox="0 0 10 10" refX="9" refY="5" markerWidth="7" markerHeight="7" orient="auto-start-reverse"><path d="M0,0 L10,5 L0,10 z" class="k-hl"/></marker></defs>
<rect x="0" y="0" width="720" height="330" class="fig-paper"/>
<rect x="30" y="40" width="60.8" height="121.6" rx="0" class="f-a s-line" stroke-width="0.8"/>
<text x="60.4" y="100.8" text-anchor="middle" dominant-baseline="central" class="fig-txt t-ink fig-small">warp 0</text>
<rect x="90.8" y="40" width="60.8" height="121.6" rx="0" class="f-b s-line" stroke-width="0.8"/>
<text x="121.2" y="100.8" text-anchor="middle" dominant-baseline="central" class="fig-txt t-ink fig-small">warp 1</text>
<rect x="151.6" y="40" width="60.8" height="121.6" rx="0" class="f-c s-line" stroke-width="0.8"/>
<text x="182" y="100.8" text-anchor="middle" dominant-baseline="central" class="fig-txt t-ink fig-small">warp 2</text>
<rect x="212.4" y="40" width="60.8" height="121.6" rx="0" class="f-d s-line" stroke-width="0.8"/>
<text x="242.8" y="100.8" text-anchor="middle" dominant-baseline="central" class="fig-txt t-ink fig-small">warp 3</text>
<rect x="30" y="161.6" width="60.8" height="121.6" rx="0" class="f-b s-line" stroke-width="0.8"/>
<text x="60.4" y="222.4" text-anchor="middle" dominant-baseline="central" class="fig-txt t-ink fig-small">warp 4</text>
<rect x="90.8" y="161.6" width="60.8" height="121.6" rx="0" class="f-c s-line" stroke-width="0.8"/>
<text x="121.2" y="222.4" text-anchor="middle" dominant-baseline="central" class="fig-txt t-ink fig-small">warp 5</text>
<rect x="151.6" y="161.6" width="60.8" height="121.6" rx="0" class="f-d s-line" stroke-width="0.8"/>
<text x="182" y="222.4" text-anchor="middle" dominant-baseline="central" class="fig-txt t-ink fig-small">warp 6</text>
<rect x="212.4" y="161.6" width="60.8" height="121.6" rx="0" class="f-a s-line" stroke-width="0.8"/>
<text x="242.8" y="222.4" text-anchor="middle" dominant-baseline="central" class="fig-txt t-ink fig-small">warp 7</text>
<rect x="30" y="40" width="243.2" height="243.2" rx="0" class="fig-none s-ink" stroke-width="1.4"/>
<rect x="151.6" y="161.6" width="60.8" height="121.6" rx="0" class="fig-none s-hl" stroke-width="2"/>
<line x1="30" y1="30" x2="90.8" y2="30" class="s-ink" stroke-width="1"/>
<line x1="30" y1="26" x2="30" y2="34" class="s-ink" stroke-width="1"/>
<line x1="90.8" y1="26" x2="90.8" y2="34" class="s-ink" stroke-width="1"/>
<text x="60.4" y="19" text-anchor="middle" dominant-baseline="central" class="fig-txt t-ink fig-small">32</text>
<line x1="22" y1="40" x2="22" y2="161.6" class="s-ink" stroke-width="1"/>
<line x1="18" y1="40" x2="26" y2="40" class="s-ink" stroke-width="1"/>
<line x1="18" y1="161.6" x2="26" y2="161.6" class="s-ink" stroke-width="1"/>
<text x="16" y="100.8" text-anchor="end" dominant-baseline="central" class="fig-txt t-ink fig-small">64</text>
<text x="151.6" y="301.2" text-anchor="middle" dominant-baseline="central" class="fig-txt t-ink fig-small">block tile 128 × 128: 2 × 4 warps</text>
<line x1="212.4" y1="161.6" x2="380" y2="40" class="s-hl" stroke-width="0.8" stroke-dasharray="3 3"/>
<line x1="212.4" y1="283.2" x2="380" y2="283.2" class="s-hl" stroke-width="0.8" stroke-dasharray="3 3"/>
<rect x="380" y="40" width="60.8" height="121.6" rx="0" class="f-c s-ink" stroke-width="1"/>
<rect x="380" y="40" width="15.2" height="15.2" rx="0" class="fig-none s-line" stroke-width="0.4"/>
<text x="387.6" y="47.6" text-anchor="middle" dominant-baseline="central" class="fig-mono t-muted fig-tiny">0</text>
<rect x="395.2" y="40" width="15.2" height="15.2" rx="0" class="fig-none s-line" stroke-width="0.4"/>
<text x="402.8" y="47.6" text-anchor="middle" dominant-baseline="central" class="fig-mono t-muted fig-tiny">1</text>
<rect x="410.4" y="40" width="15.2" height="15.2" rx="0" class="fig-none s-line" stroke-width="0.4"/>
<text x="418" y="47.6" text-anchor="middle" dominant-baseline="central" class="fig-mono t-muted fig-tiny">2</text>
<rect x="425.6" y="40" width="15.2" height="15.2" rx="0" class="fig-none s-line" stroke-width="0.4"/>
<text x="433.2" y="47.6" text-anchor="middle" dominant-baseline="central" class="fig-mono t-muted fig-tiny">3</text>
<rect x="380" y="55.2" width="15.2" height="15.2" rx="0" class="fig-none s-line" stroke-width="0.4"/>
<text x="387.6" y="62.8" text-anchor="middle" dominant-baseline="central" class="fig-mono t-muted fig-tiny">4</text>
<rect x="395.2" y="55.2" width="15.2" height="15.2" rx="0" class="fig-none s-line" stroke-width="0.4"/>
<text x="402.8" y="62.8" text-anchor="middle" dominant-baseline="central" class="fig-mono t-muted fig-tiny">5</text>
<rect x="410.4" y="55.2" width="15.2" height="15.2" rx="0" class="fig-none s-line" stroke-width="0.4"/>
<text x="418" y="62.8" text-anchor="middle" dominant-baseline="central" class="fig-mono t-muted fig-tiny">6</text>
<rect x="425.6" y="55.2" width="15.2" height="15.2" rx="0" class="fig-none s-line" stroke-width="0.4"/>
<text x="433.2" y="62.8" text-anchor="middle" dominant-baseline="central" class="fig-mono t-muted fig-tiny">7</text>
<rect x="380" y="70.4" width="15.2" height="15.2" rx="0" class="fig-none s-line" stroke-width="0.4"/>
<text x="387.6" y="78" text-anchor="middle" dominant-baseline="central" class="fig-mono t-muted fig-tiny">8</text>
<rect x="395.2" y="70.4" width="15.2" height="15.2" rx="0" class="f-hl2 s-line" stroke-width="0.4"/>
<text x="402.8" y="78" text-anchor="middle" dominant-baseline="central" class="fig-mono t-muted fig-tiny">9</text>
<rect x="410.4" y="70.4" width="15.2" height="15.2" rx="0" class="fig-none s-line" stroke-width="0.4"/>
<text x="418" y="78" text-anchor="middle" dominant-baseline="central" class="fig-mono t-muted fig-tiny">10</text>
<rect x="425.6" y="70.4" width="15.2" height="15.2" rx="0" class="fig-none s-line" stroke-width="0.4"/>
<text x="433.2" y="78" text-anchor="middle" dominant-baseline="central" class="fig-mono t-muted fig-tiny">11</text>
<rect x="380" y="85.6" width="15.2" height="15.2" rx="0" class="fig-none s-line" stroke-width="0.4"/>
<text x="387.6" y="93.2" text-anchor="middle" dominant-baseline="central" class="fig-mono t-muted fig-tiny">12</text>
<rect x="395.2" y="85.6" width="15.2" height="15.2" rx="0" class="fig-none s-line" stroke-width="0.4"/>
<text x="402.8" y="93.2" text-anchor="middle" dominant-baseline="central" class="fig-mono t-muted fig-tiny">13</text>
<rect x="410.4" y="85.6" width="15.2" height="15.2" rx="0" class="fig-none s-line" stroke-width="0.4"/>
<text x="418" y="93.2" text-anchor="middle" dominant-baseline="central" class="fig-mono t-muted fig-tiny">14</text>
<rect x="425.6" y="85.6" width="15.2" height="15.2" rx="0" class="fig-none s-line" stroke-width="0.4"/>
<text x="433.2" y="93.2" text-anchor="middle" dominant-baseline="central" class="fig-mono t-muted fig-tiny">15</text>
<rect x="380" y="100.8" width="15.2" height="15.2" rx="0" class="fig-none s-line" stroke-width="0.4"/>
<text x="387.6" y="108.4" text-anchor="middle" dominant-baseline="central" class="fig-mono t-muted fig-tiny">16</text>
<rect x="395.2" y="100.8" width="15.2" height="15.2" rx="0" class="fig-none s-line" stroke-width="0.4"/>
<text x="402.8" y="108.4" text-anchor="middle" dominant-baseline="central" class="fig-mono t-muted fig-tiny">17</text>
<rect x="410.4" y="100.8" width="15.2" height="15.2" rx="0" class="fig-none s-line" stroke-width="0.4"/>
<text x="418" y="108.4" text-anchor="middle" dominant-baseline="central" class="fig-mono t-muted fig-tiny">18</text>
<rect x="425.6" y="100.8" width="15.2" height="15.2" rx="0" class="fig-none s-line" stroke-width="0.4"/>
<text x="433.2" y="108.4" text-anchor="middle" dominant-baseline="central" class="fig-mono t-muted fig-tiny">19</text>
<rect x="380" y="116" width="15.2" height="15.2" rx="0" class="fig-none s-line" stroke-width="0.4"/>
<text x="387.6" y="123.6" text-anchor="middle" dominant-baseline="central" class="fig-mono t-muted fig-tiny">20</text>
<rect x="395.2" y="116" width="15.2" height="15.2" rx="0" class="fig-none s-line" stroke-width="0.4"/>
<text x="402.8" y="123.6" text-anchor="middle" dominant-baseline="central" class="fig-mono t-muted fig-tiny">21</text>
<rect x="410.4" y="116" width="15.2" height="15.2" rx="0" class="fig-none s-line" stroke-width="0.4"/>
<text x="418" y="123.6" text-anchor="middle" dominant-baseline="central" class="fig-mono t-muted fig-tiny">22</text>
<rect x="425.6" y="116" width="15.2" height="15.2" rx="0" class="fig-none s-line" stroke-width="0.4"/>
<text x="433.2" y="123.6" text-anchor="middle" dominant-baseline="central" class="fig-mono t-muted fig-tiny">23</text>
<rect x="380" y="131.2" width="15.2" height="15.2" rx="0" class="fig-none s-line" stroke-width="0.4"/>
<text x="387.6" y="138.8" text-anchor="middle" dominant-baseline="central" class="fig-mono t-muted fig-tiny">24</text>
<rect x="395.2" y="131.2" width="15.2" height="15.2" rx="0" class="fig-none s-line" stroke-width="0.4"/>
<text x="402.8" y="138.8" text-anchor="middle" dominant-baseline="central" class="fig-mono t-muted fig-tiny">25</text>
<rect x="410.4" y="131.2" width="15.2" height="15.2" rx="0" class="fig-none s-line" stroke-width="0.4"/>
<text x="418" y="138.8" text-anchor="middle" dominant-baseline="central" class="fig-mono t-muted fig-tiny">26</text>
<rect x="425.6" y="131.2" width="15.2" height="15.2" rx="0" class="fig-none s-line" stroke-width="0.4"/>
<text x="433.2" y="138.8" text-anchor="middle" dominant-baseline="central" class="fig-mono t-muted fig-tiny">27</text>
<rect x="380" y="146.4" width="15.2" height="15.2" rx="0" class="fig-none s-line" stroke-width="0.4"/>
<text x="387.6" y="154" text-anchor="middle" dominant-baseline="central" class="fig-mono t-muted fig-tiny">28</text>
<rect x="395.2" y="146.4" width="15.2" height="15.2" rx="0" class="fig-none s-line" stroke-width="0.4"/>
<text x="402.8" y="154" text-anchor="middle" dominant-baseline="central" class="fig-mono t-muted fig-tiny">29</text>
<rect x="410.4" y="146.4" width="15.2" height="15.2" rx="0" class="fig-none s-line" stroke-width="0.4"/>
<text x="418" y="154" text-anchor="middle" dominant-baseline="central" class="fig-mono t-muted fig-tiny">30</text>
<rect x="425.6" y="146.4" width="15.2" height="15.2" rx="0" class="fig-none s-line" stroke-width="0.4"/>
<text x="433.2" y="154" text-anchor="middle" dominant-baseline="central" class="fig-mono t-muted fig-tiny">31</text>
<rect x="440.8" y="40" width="60.8" height="121.6" rx="0" class="fig-panel s-ink" stroke-width="1"/>
<rect x="440.8" y="40" width="15.2" height="15.2" rx="0" class="fig-none s-line" stroke-width="0.4"/>
<rect x="456" y="40" width="15.2" height="15.2" rx="0" class="fig-none s-line" stroke-width="0.4"/>
<rect x="471.2" y="40" width="15.2" height="15.2" rx="0" class="fig-none s-line" stroke-width="0.4"/>
<rect x="486.4" y="40" width="15.2" height="15.2" rx="0" class="fig-none s-line" stroke-width="0.4"/>
<rect x="440.8" y="55.2" width="15.2" height="15.2" rx="0" class="fig-none s-line" stroke-width="0.4"/>
<rect x="456" y="55.2" width="15.2" height="15.2" rx="0" class="fig-none s-line" stroke-width="0.4"/>
<rect x="471.2" y="55.2" width="15.2" height="15.2" rx="0" class="fig-none s-line" stroke-width="0.4"/>
<rect x="486.4" y="55.2" width="15.2" height="15.2" rx="0" class="fig-none s-line" stroke-width="0.4"/>
<rect x="440.8" y="70.4" width="15.2" height="15.2" rx="0" class="fig-none s-line" stroke-width="0.4"/>
<rect x="456" y="70.4" width="15.2" height="15.2" rx="0" class="f-hl2 s-line" stroke-width="0.4"/>
<rect x="471.2" y="70.4" width="15.2" height="15.2" rx="0" class="fig-none s-line" stroke-width="0.4"/>
<rect x="486.4" y="70.4" width="15.2" height="15.2" rx="0" class="fig-none s-line" stroke-width="0.4"/>
<rect x="440.8" y="85.6" width="15.2" height="15.2" rx="0" class="fig-none s-line" stroke-width="0.4"/>
<rect x="456" y="85.6" width="15.2" height="15.2" rx="0" class="fig-none s-line" stroke-width="0.4"/>
<rect x="471.2" y="85.6" width="15.2" height="15.2" rx="0" class="fig-none s-line" stroke-width="0.4"/>
<rect x="486.4" y="85.6" width="15.2" height="15.2" rx="0" class="fig-none s-line" stroke-width="0.4"/>
<rect x="440.8" y="100.8" width="15.2" height="15.2" rx="0" class="fig-none s-line" stroke-width="0.4"/>
<rect x="456" y="100.8" width="15.2" height="15.2" rx="0" class="fig-none s-line" stroke-width="0.4"/>
<rect x="471.2" y="100.8" width="15.2" height="15.2" rx="0" class="fig-none s-line" stroke-width="0.4"/>
<rect x="486.4" y="100.8" width="15.2" height="15.2" rx="0" class="fig-none s-line" stroke-width="0.4"/>
<rect x="440.8" y="116" width="15.2" height="15.2" rx="0" class="fig-none s-line" stroke-width="0.4"/>
<rect x="456" y="116" width="15.2" height="15.2" rx="0" class="fig-none s-line" stroke-width="0.4"/>
<rect x="471.2" y="116" width="15.2" height="15.2" rx="0" class="fig-none s-line" stroke-width="0.4"/>
<rect x="486.4" y="116" width="15.2" height="15.2" rx="0" class="fig-none s-line" stroke-width="0.4"/>
<rect x="440.8" y="131.2" width="15.2" height="15.2" rx="0" class="fig-none s-line" stroke-width="0.4"/>
<rect x="456" y="131.2" width="15.2" height="15.2" rx="0" class="fig-none s-line" stroke-width="0.4"/>
<rect x="471.2" y="131.2" width="15.2" height="15.2" rx="0" class="fig-none s-line" stroke-width="0.4"/>
<rect x="486.4" y="131.2" width="15.2" height="15.2" rx="0" class="fig-none s-line" stroke-width="0.4"/>
<rect x="440.8" y="146.4" width="15.2" height="15.2" rx="0" class="fig-none s-line" stroke-width="0.4"/>
<rect x="456" y="146.4" width="15.2" height="15.2" rx="0" class="fig-none s-line" stroke-width="0.4"/>
<rect x="471.2" y="146.4" width="15.2" height="15.2" rx="0" class="fig-none s-line" stroke-width="0.4"/>
<rect x="486.4" y="146.4" width="15.2" height="15.2" rx="0" class="fig-none s-line" stroke-width="0.4"/>
<rect x="380" y="161.6" width="60.8" height="121.6" rx="0" class="fig-panel s-ink" stroke-width="1"/>
<rect x="380" y="161.6" width="15.2" height="15.2" rx="0" class="fig-none s-line" stroke-width="0.4"/>
<rect x="395.2" y="161.6" width="15.2" height="15.2" rx="0" class="fig-none s-line" stroke-width="0.4"/>
<rect x="410.4" y="161.6" width="15.2" height="15.2" rx="0" class="fig-none s-line" stroke-width="0.4"/>
<rect x="425.6" y="161.6" width="15.2" height="15.2" rx="0" class="fig-none s-line" stroke-width="0.4"/>
<rect x="380" y="176.8" width="15.2" height="15.2" rx="0" class="fig-none s-line" stroke-width="0.4"/>
<rect x="395.2" y="176.8" width="15.2" height="15.2" rx="0" class="fig-none s-line" stroke-width="0.4"/>
<rect x="410.4" y="176.8" width="15.2" height="15.2" rx="0" class="fig-none s-line" stroke-width="0.4"/>
<rect x="425.6" y="176.8" width="15.2" height="15.2" rx="0" class="fig-none s-line" stroke-width="0.4"/>
<rect x="380" y="192" width="15.2" height="15.2" rx="0" class="fig-none s-line" stroke-width="0.4"/>
<rect x="395.2" y="192" width="15.2" height="15.2" rx="0" class="f-hl2 s-line" stroke-width="0.4"/>
<rect x="410.4" y="192" width="15.2" height="15.2" rx="0" class="fig-none s-line" stroke-width="0.4"/>
<rect x="425.6" y="192" width="15.2" height="15.2" rx="0" class="fig-none s-line" stroke-width="0.4"/>
<rect x="380" y="207.2" width="15.2" height="15.2" rx="0" class="fig-none s-line" stroke-width="0.4"/>
<rect x="395.2" y="207.2" width="15.2" height="15.2" rx="0" class="fig-none s-line" stroke-width="0.4"/>
<rect x="410.4" y="207.2" width="15.2" height="15.2" rx="0" class="fig-none s-line" stroke-width="0.4"/>
<rect x="425.6" y="207.2" width="15.2" height="15.2" rx="0" class="fig-none s-line" stroke-width="0.4"/>
<rect x="380" y="222.4" width="15.2" height="15.2" rx="0" class="fig-none s-line" stroke-width="0.4"/>
<rect x="395.2" y="222.4" width="15.2" height="15.2" rx="0" class="fig-none s-line" stroke-width="0.4"/>
<rect x="410.4" y="222.4" width="15.2" height="15.2" rx="0" class="fig-none s-line" stroke-width="0.4"/>
<rect x="425.6" y="222.4" width="15.2" height="15.2" rx="0" class="fig-none s-line" stroke-width="0.4"/>
<rect x="380" y="237.6" width="15.2" height="15.2" rx="0" class="fig-none s-line" stroke-width="0.4"/>
<rect x="395.2" y="237.6" width="15.2" height="15.2" rx="0" class="fig-none s-line" stroke-width="0.4"/>
<rect x="410.4" y="237.6" width="15.2" height="15.2" rx="0" class="fig-none s-line" stroke-width="0.4"/>
<rect x="425.6" y="237.6" width="15.2" height="15.2" rx="0" class="fig-none s-line" stroke-width="0.4"/>
<rect x="380" y="252.8" width="15.2" height="15.2" rx="0" class="fig-none s-line" stroke-width="0.4"/>
<rect x="395.2" y="252.8" width="15.2" height="15.2" rx="0" class="fig-none s-line" stroke-width="0.4"/>
<rect x="410.4" y="252.8" width="15.2" height="15.2" rx="0" class="fig-none s-line" stroke-width="0.4"/>
<rect x="425.6" y="252.8" width="15.2" height="15.2" rx="0" class="fig-none s-line" stroke-width="0.4"/>
<rect x="380" y="268" width="15.2" height="15.2" rx="0" class="fig-none s-line" stroke-width="0.4"/>
<rect x="395.2" y="268" width="15.2" height="15.2" rx="0" class="fig-none s-line" stroke-width="0.4"/>
<rect x="410.4" y="268" width="15.2" height="15.2" rx="0" class="fig-none s-line" stroke-width="0.4"/>
<rect x="425.6" y="268" width="15.2" height="15.2" rx="0" class="fig-none s-line" stroke-width="0.4"/>
<rect x="440.8" y="161.6" width="60.8" height="121.6" rx="0" class="f-c s-ink" stroke-width="1"/>
<rect x="440.8" y="161.6" width="15.2" height="15.2" rx="0" class="fig-none s-line" stroke-width="0.4"/>
<rect x="456" y="161.6" width="15.2" height="15.2" rx="0" class="fig-none s-line" stroke-width="0.4"/>
<rect x="471.2" y="161.6" width="15.2" height="15.2" rx="0" class="fig-none s-line" stroke-width="0.4"/>
<rect x="486.4" y="161.6" width="15.2" height="15.2" rx="0" class="fig-none s-line" stroke-width="0.4"/>
<rect x="440.8" y="176.8" width="15.2" height="15.2" rx="0" class="fig-none s-line" stroke-width="0.4"/>
<rect x="456" y="176.8" width="15.2" height="15.2" rx="0" class="fig-none s-line" stroke-width="0.4"/>
<rect x="471.2" y="176.8" width="15.2" height="15.2" rx="0" class="fig-none s-line" stroke-width="0.4"/>
<rect x="486.4" y="176.8" width="15.2" height="15.2" rx="0" class="fig-none s-line" stroke-width="0.4"/>
<rect x="440.8" y="192" width="15.2" height="15.2" rx="0" class="fig-none s-line" stroke-width="0.4"/>
<rect x="456" y="192" width="15.2" height="15.2" rx="0" class="f-hl2 s-line" stroke-width="0.4"/>
<rect x="471.2" y="192" width="15.2" height="15.2" rx="0" class="fig-none s-line" stroke-width="0.4"/>
<rect x="486.4" y="192" width="15.2" height="15.2" rx="0" class="fig-none s-line" stroke-width="0.4"/>
<rect x="440.8" y="207.2" width="15.2" height="15.2" rx="0" class="fig-none s-line" stroke-width="0.4"/>
<rect x="456" y="207.2" width="15.2" height="15.2" rx="0" class="fig-none s-line" stroke-width="0.4"/>
<rect x="471.2" y="207.2" width="15.2" height="15.2" rx="0" class="fig-none s-line" stroke-width="0.4"/>
<rect x="486.4" y="207.2" width="15.2" height="15.2" rx="0" class="fig-none s-line" stroke-width="0.4"/>
<rect x="440.8" y="222.4" width="15.2" height="15.2" rx="0" class="fig-none s-line" stroke-width="0.4"/>
<rect x="456" y="222.4" width="15.2" height="15.2" rx="0" class="fig-none s-line" stroke-width="0.4"/>
<rect x="471.2" y="222.4" width="15.2" height="15.2" rx="0" class="fig-none s-line" stroke-width="0.4"/>
<rect x="486.4" y="222.4" width="15.2" height="15.2" rx="0" class="fig-none s-line" stroke-width="0.4"/>
<rect x="440.8" y="237.6" width="15.2" height="15.2" rx="0" class="fig-none s-line" stroke-width="0.4"/>
<rect x="456" y="237.6" width="15.2" height="15.2" rx="0" class="fig-none s-line" stroke-width="0.4"/>
<rect x="471.2" y="237.6" width="15.2" height="15.2" rx="0" class="fig-none s-line" stroke-width="0.4"/>
<rect x="486.4" y="237.6" width="15.2" height="15.2" rx="0" class="fig-none s-line" stroke-width="0.4"/>
<rect x="440.8" y="252.8" width="15.2" height="15.2" rx="0" class="fig-none s-line" stroke-width="0.4"/>
<rect x="456" y="252.8" width="15.2" height="15.2" rx="0" class="fig-none s-line" stroke-width="0.4"/>
<rect x="471.2" y="252.8" width="15.2" height="15.2" rx="0" class="fig-none s-line" stroke-width="0.4"/>
<rect x="486.4" y="252.8" width="15.2" height="15.2" rx="0" class="fig-none s-line" stroke-width="0.4"/>
<rect x="440.8" y="268" width="15.2" height="15.2" rx="0" class="fig-none s-line" stroke-width="0.4"/>
<rect x="456" y="268" width="15.2" height="15.2" rx="0" class="fig-none s-line" stroke-width="0.4"/>
<rect x="471.2" y="268" width="15.2" height="15.2" rx="0" class="fig-none s-line" stroke-width="0.4"/>
<rect x="486.4" y="268" width="15.2" height="15.2" rx="0" class="fig-none s-line" stroke-width="0.4"/>
<rect x="380" y="40" width="121.6" height="243.2" rx="0" class="fig-none s-hl" stroke-width="2"/>
<text x="440.8" y="301.2" text-anchor="middle" dominant-baseline="central" class="fig-txt t-ink fig-small">warp tile 64 × 32</text>
<text x="530" y="60" text-anchor="start" dominant-baseline="central" class="fig-txt t-ink fig-small">2 × 2 sub-tiles of 32 × 16;</text>
<text x="530" y="80" text-anchor="start" dominant-baseline="central" class="fig-txt t-ink fig-small">lanes form an 8 × 4 grid,</text>
<text x="530" y="100" text-anchor="start" dominant-baseline="central" class="fig-txt t-ink fig-small">4 × 4 outputs per lane</text>
<text x="530" y="120" text-anchor="start" dominant-baseline="central" class="fig-txt t-ink fig-small">per sub-tile.</text>
<text x="530" y="160" text-anchor="start" dominant-baseline="central" class="fig-txt t-ink fig-small">Lane 9 (red) owns 4 patches:</text>
<text x="530" y="180" text-anchor="start" dominant-baseline="central" class="fig-txt t-ink fig-small">rows 4·(9/4) + {0, 32}, cols</text>
<text x="530" y="200" text-anchor="start" dominant-baseline="central" class="fig-txt t-ink fig-small">4·(9%4) + {0, 16} (+0..3).</text>
<text x="530" y="240" text-anchor="start" dominant-baseline="central" class="fig-txt t-ink fig-small">Per k: 2 float4 of A and</text>
<text x="530" y="260" text-anchor="start" dominant-baseline="central" class="fig-txt t-ink fig-small">2 float4 of B per lane.</text>
</svg>
