<svg xmlns="http://www.w3.org/2000/svg" viewBox="0 0 720 270" width="720" height="270" class="fig-svg" role="img">
<title>The logistic sigmoid squashes any input into (0, 1)</title><style>.fig-paper{fill:var(--fig-paper,#ffffff)}.fig-panel{fill:var(--fig-panel,#f8fafc)}.fig-none{fill:none}.s-ink{stroke:var(--fig-ink,#1f2937)}.t-ink{fill:var(--fig-ink,#1f2937)}.f-ink{fill:var(--fig-ink-soft,#f3f4f6)}.f-ink2{fill:var(--fig-ink-mid,#e5e7eb)}.k-ink{fill:var(--fig-ink,#1f2937)}.s-muted{stroke:var(--fig-muted,#6b7280)}.t-muted{fill:var(--fig-muted,#6b7280)}.f-muted{fill:var(--fig-muted-soft,#f9fafb)}.f-muted2{fill:var(--fig-muted-mid,#e5e7eb)}.k-muted{fill:var(--fig-muted,#6b7280)}.s-line{stroke:var(--fig-line,#9ca3af)}.t-line{fill:var(--fig-line,#9ca3af)}.f-line{fill:var(--fig-line-soft,#f3f4f6)}.f-line2{fill:var(--fig-line-mid,#d1d5db)}.k-line{fill:var(--fig-line,#9ca3af)}.s-a{stroke:var(--fig-a,#2563eb)}.t-a{fill:var(--fig-a,#2563eb)}.f-a{fill:var(--fig-a-soft,#dbeafe)}.f-a2{fill:var(--fig-a-mid,#93c5fd)}.k-a{fill:var(--fig-a,#2563eb)}.s-b{stroke:var(--fig-b,#c2410c)}.t-b{fill:var(--fig-b,#c2410c)}.f-b{fill:var(--fig-b-soft,#ffedd5)}.f-b2{fill:var(--fig-b-mid,#fdba74)}.k-b{fill:var(--fig-b,#c2410c)}.s-c{stroke:var(--fig-c,#15803d)}.t-c{fill:var(--fig-c,#15803d)}.f-c{fill:var(--fig-c-soft,#dcfce7)}.f-c2{fill:var(--fig-c-mid,#86efac)}.k-c{fill:var(--fig-c,#15803d)}.s-d{stroke:var(--fig-d,#7c3aed)}.t-d{fill:var(--fig-d,#7c3aed)}.f-d{fill:var(--fig-d-soft,#ede9fe)}.f-d2{fill:var(--fig-d-mid,#c4b5fd)}.k-d{fill:var(--fig-d,#7c3aed)}.s-hl{stroke:var(--fig-hl,#dc2626)}.t-hl{fill:var(--fig-hl,#dc2626)}.f-hl{fill:var(--fig-hl-soft,#fee2e2)}.f-hl2{fill:var(--fig-hl-mid,#fca5a5)}.k-hl{fill:var(--fig-hl,#dc2626)}.fig-txt{font-family:Inter,system-ui,-apple-system,'Segoe UI',sans-serif;font-size:15px}.fig-mono{font-family:'Ubuntu Mono',ui-monospace,Menlo,monospace;font-size:15px}.fig-small{font-size:13px}.fig-tiny{font-size:11px}.fig-big{font-size:17px}.fig-plate{fill:var(--fig-paper,#ffffff);fill-opacity:.92}.fig-bold{font-weight:600}.fig-it{font-style:italic}</style>
<defs><marker id="leetgpu-068-sigmoid-ah-ink" viewBox="0 0 10 10" refX="9" refY="5" markerWidth="7" markerHeight="7" orient="auto-start-reverse"><path d="M0,0 L10,5 L0,10 z" class="k-ink"/></marker><marker id="leetgpu-068-sigmoid-ah-muted" viewBox="0 0 10 10" refX="9" refY="5" markerWidth="7" markerHeight="7" orient="auto-start-reverse"><path d="M0,0 L10,5 L0,10 z" class="k-muted"/></marker><marker id="leetgpu-068-sigmoid-ah-a" viewBox="0 0 10 10" refX="9" refY="5" markerWidth="7" markerHeight="7" orient="auto-start-reverse"><path d="M0,0 L10,5 L0,10 z" class="k-a"/></marker><marker id="leetgpu-068-sigmoid-ah-b" viewBox="0 0 10 10" refX="9" refY="5" markerWidth="7" markerHeight="7" orient="auto-start-reverse"><path d="M0,0 L10,5 L0,10 z" class="k-b"/></marker><marker id="leetgpu-068-sigmoid-ah-c" viewBox="0 0 10 10" refX="9" refY="5" markerWidth="7" markerHeight="7" orient="auto-start-reverse"><path d="M0,0 L10,5 L0,10 z" class="k-c"/></marker><marker id="leetgpu-068-sigmoid-ah-d" viewBox="0 0 10 10" refX="9" refY="5" markerWidth="7" markerHeight="7" orient="auto-start-reverse"><path d="M0,0 L10,5 L0,10 z" class="k-d"/></marker><marker id="leetgpu-068-sigmoid-ah-hl" viewBox="0 0 10 10" refX="9" refY="5" markerWidth="7" markerHeight="7" orient="auto-start-reverse"><path d="M0,0 L10,5 L0,10 z" class="k-hl"/></marker></defs>
<rect x="0" y="0" width="720" height="270" class="fig-paper"/>
<rect x="70" y="20" width="330" height="200" rx="0" class="fig-panel s-line" stroke-width="0.6"/>
<line x1="235" y1="20" x2="235" y2="220" class="s-muted" stroke-width="1"/>
<line x1="70" y1="220" x2="70" y2="224" class="s-muted" stroke-width="1"/>
<text x="70" y="234" text-anchor="middle" dominant-baseline="central" class="fig-txt t-muted fig-tiny">−8</text>
<line x1="152.5" y1="220" x2="152.5" y2="224" class="s-muted" stroke-width="1"/>
<text x="152.5" y="234" text-anchor="middle" dominant-baseline="central" class="fig-txt t-muted fig-tiny">−4</text>
<line x1="235" y1="220" x2="235" y2="224" class="s-muted" stroke-width="1"/>
<text x="235" y="234" text-anchor="middle" dominant-baseline="central" class="fig-txt t-muted fig-tiny">0</text>
<line x1="317.5" y1="220" x2="317.5" y2="224" class="s-muted" stroke-width="1"/>
<text x="317.5" y="234" text-anchor="middle" dominant-baseline="central" class="fig-txt t-muted fig-tiny">4</text>
<line x1="400" y1="220" x2="400" y2="224" class="s-muted" stroke-width="1"/>
<text x="400" y="234" text-anchor="middle" dominant-baseline="central" class="fig-txt t-muted fig-tiny">8</text>
<line x1="66" y1="220" x2="70" y2="220" class="s-muted" stroke-width="1"/>
<text x="63" y="220" text-anchor="end" dominant-baseline="central" class="fig-txt t-muted fig-tiny">0</text>
<line x1="66" y1="120" x2="70" y2="120" class="s-muted" stroke-width="1"/>
<text x="63" y="120" text-anchor="end" dominant-baseline="central" class="fig-txt t-muted fig-tiny">0.5</text>
<line x1="66" y1="20" x2="70" y2="20" class="s-muted" stroke-width="1"/>
<text x="63" y="20" text-anchor="end" dominant-baseline="central" class="fig-txt t-muted fig-tiny">1</text>
<text x="235" y="250" text-anchor="middle" dominant-baseline="central" class="fig-txt t-muted fig-small fig-it">x</text>
<text x="36" y="120" text-anchor="middle" dominant-baseline="central" class="fig-txt t-muted fig-small fig-it" transform="rotate(-90 36 120)">f(x)</text>
<path d="M70.0,219.9 L71.4,219.9 L72.8,219.9 L74.1,219.9 L75.5,219.9 L76.9,219.9 L78.2,219.9 L79.6,219.9 L81.0,219.9 L82.4,219.9 L83.8,219.9 L85.1,219.9 L86.5,219.9 L87.9,219.8 L89.2,219.8 L90.6,219.8 L92.0,219.8 L93.4,219.8 L94.8,219.8 L96.1,219.8 L97.5,219.7 L98.9,219.7 L100.2,219.7 L101.6,219.7 L103.0,219.7 L104.4,219.6 L105.8,219.6 L107.1,219.6 L108.5,219.6 L109.9,219.5 L111.2,219.5 L112.6,219.5 L114.0,219.4 L115.4,219.4 L116.8,219.4 L118.1,219.3 L119.5,219.3 L120.9,219.2 L122.2,219.2 L123.6,219.1 L125.0,219.0 L126.4,219.0 L127.8,218.9 L129.1,218.8 L130.5,218.7 L131.9,218.7 L133.2,218.6 L134.6,218.5 L136.0,218.4 L137.4,218.3 L138.8,218.1 L140.1,218.0 L141.5,217.9 L142.9,217.7 L144.2,217.6 L145.6,217.4 L147.0,217.2 L148.4,217.0 L149.8,216.8 L151.1,216.6 L152.5,216.4 L153.9,216.2 L155.2,215.9 L156.6,215.6 L158.0,215.3 L159.4,215.0 L160.8,214.7 L162.1,214.3 L163.5,213.9 L164.9,213.5 L166.2,213.1 L167.6,212.7 L169.0,212.2 L170.4,211.6 L171.8,211.1 L173.1,210.5 L174.5,209.9 L175.9,209.2 L177.2,208.5 L178.6,207.8 L180.0,207.0 L181.4,206.2 L182.8,205.3 L184.1,204.4 L185.5,203.4 L186.9,202.3 L188.2,201.2 L189.6,200.0 L191.0,198.8 L192.4,197.5 L193.8,196.2 L195.1,194.7 L196.5,193.2 L197.9,191.6 L199.2,190.0 L200.6,188.2 L202.0,186.4 L203.4,184.5 L204.8,182.5 L206.1,180.4 L207.5,178.3 L208.9,176.0 L210.2,173.7 L211.6,171.3 L213.0,168.8 L214.4,166.2 L215.8,163.6 L217.1,160.8 L218.5,158.0 L219.9,155.1 L221.2,152.2 L222.6,149.1 L224.0,146.1 L225.4,142.9 L226.8,139.7 L228.1,136.5 L229.5,133.3 L230.9,130.0 L232.2,126.7 L233.6,123.3 L235.0,120.0 L236.4,116.7 L237.8,113.3 L239.1,110.0 L240.5,106.7 L241.9,103.5 L243.2,100.3 L244.6,97.1 L246.0,93.9 L247.4,90.9 L248.8,87.8 L250.1,84.9 L251.5,82.0 L252.9,79.2 L254.2,76.4 L255.6,73.8 L257.0,71.2 L258.4,68.7 L259.8,66.3 L261.1,64.0 L262.5,61.7 L263.9,59.6 L265.2,57.5 L266.6,55.5 L268.0,53.6 L269.4,51.8 L270.8,50.0 L272.1,48.4 L273.5,46.8 L274.9,45.3 L276.2,43.8 L277.6,42.5 L279.0,41.2 L280.4,40.0 L281.8,38.8 L283.1,37.7 L284.5,36.6 L285.9,35.6 L287.2,34.7 L288.6,33.8 L290.0,33.0 L291.4,32.2 L292.8,31.5 L294.1,30.8 L295.5,30.1 L296.9,29.5 L298.2,28.9 L299.6,28.4 L301.0,27.8 L302.4,27.3 L303.8,26.9 L305.1,26.5 L306.5,26.1 L307.9,25.7 L309.2,25.3 L310.6,25.0 L312.0,24.7 L313.4,24.4 L314.8,24.1 L316.1,23.8 L317.5,23.6 L318.9,23.4 L320.2,23.2 L321.6,23.0 L323.0,22.8 L324.4,22.6 L325.8,22.4 L327.1,22.3 L328.5,22.1 L329.9,22.0 L331.2,21.9 L332.6,21.7 L334.0,21.6 L335.4,21.5 L336.8,21.4 L338.1,21.3 L339.5,21.3 L340.9,21.2 L342.2,21.1 L343.6,21.0 L345.0,21.0 L346.4,20.9 L347.8,20.8 L349.1,20.8 L350.5,20.7 L351.9,20.7 L353.2,20.6 L354.6,20.6 L356.0,20.6 L357.4,20.5 L358.8,20.5 L360.1,20.5 L361.5,20.4 L362.9,20.4 L364.2,20.4 L365.6,20.4 L367.0,20.3 L368.4,20.3 L369.8,20.3 L371.1,20.3 L372.5,20.3 L373.9,20.2 L375.2,20.2 L376.6,20.2 L378.0,20.2 L379.4,20.2 L380.8,20.2 L382.1,20.2 L383.5,20.1 L384.9,20.1 L386.2,20.1 L387.6,20.1 L389.0,20.1 L390.4,20.1 L391.8,20.1 L393.1,20.1 L394.5,20.1 L395.9,20.1 L397.2,20.1 L398.6,20.1 L400.0,20.1" class="fig-none s-a" stroke-width="2.2" stroke-linejoin="round" stroke-linecap="round"/>
<circle cx="235" cy="120" r="4" class="k-hl" stroke-width="1"/>
<text x="440" y="36" text-anchor="start" dominant-baseline="central" class="fig-txt t-ink fig-bold">σ(x) = 1 / (1 + e⁻ˣ)</text>
<text x="440" y="58" text-anchor="start" dominant-baseline="central" class="fig-txt t-ink fig-small">σ(−x) = 1 − σ(x),  σ(0) = 0.5</text>
<text x="440" y="96" text-anchor="start" dominant-baseline="central" class="fig-txt t-muted fig-small">Safe without branches in float32:</text>
<text x="440" y="113" text-anchor="start" dominant-baseline="central" class="fig-txt t-muted fig-small">x → −∞: e⁻ˣ → ∞ and 1/∞ = 0;</text>
<text x="440" y="130" text-anchor="start" dominant-baseline="central" class="fig-txt t-muted fig-small">x → +∞: e⁻ˣ → 0 and σ = 1.</text>
<text x="440" y="164" text-anchor="start" dominant-baseline="central" class="fig-txt t-muted fig-small">One thread per element (float4).</text>
</svg>
